<svg width="110" height="110" viewBox="0 0 110 110" fill="none" xmlns="http://www.w3.org/2000/svg">
<path d="M82.5012 82.5C84.3246 82.5 86.0733 81.7757 87.3626 80.4864C88.6519 79.197 89.3762 77.4484 89.3762 75.625V58.8362C89.3762 57.0129 88.6519 55.2642 87.3626 53.9749C86.0733 52.6856 84.3246 51.9613 82.5012 51.9613H72.9587C72.9587 49.5458 73.1008 47.1304 73.385 44.715C73.8112 42.1575 74.5217 39.8842 75.5162 37.895C76.5108 35.9058 77.7919 34.3406 79.3594 33.1994C80.9177 31.9206 82.9069 31.2813 85.3269 31.2813V20.625C81.3485 20.625 77.8652 21.4775 74.8769 23.1825C71.9092 24.866 69.3595 27.1972 67.4175 30.0025C65.4623 33.0904 64.0227 36.4759 63.155 40.0263C62.2776 43.9432 61.8486 47.9473 61.8762 51.9613V75.625C61.8762 77.4484 62.6006 79.197 63.8899 80.4864C65.1792 81.7757 66.9279 82.5 68.7512 82.5H82.5012ZM41.2513 82.5C43.0746 82.5 44.8233 81.7757 46.1126 80.4864C47.4019 79.197 48.1262 77.4484 48.1262 75.625V58.8362C48.1262 57.0129 47.4019 55.2642 46.1126 53.9749C44.8233 52.6856 43.0746 51.9613 41.2513 51.9613H31.7088C31.7088 49.5458 31.8508 47.1304 32.135 44.715C32.5658 42.1575 33.2763 39.8842 34.2663 37.895C35.2608 35.9058 36.5419 34.3406 38.1094 33.1994C39.6677 31.9206 41.6569 31.2813 44.0769 31.2813V20.625C40.0985 20.625 36.6152 21.4775 33.6269 23.1825C30.6592 24.866 28.1095 27.1972 26.1675 30.0025C24.2123 33.0904 22.7727 36.4759 21.905 40.0263C21.0276 43.9432 20.5986 47.9473 20.6263 51.9613V75.625C20.6263 77.4484 21.3506 79.197 22.6399 80.4864C23.9292 81.7757 25.6779 82.5 27.5013 82.5H41.2513Z" fill="#102110"/>
</svg>
