<svg width="32" height="32" viewBox="0 0 32 32" fill="none" xmlns="http://www.w3.org/2000/svg">
<g clip-path="url(#clip0_558_1925)">
<path d="M1.15625 19.7012C1.41318 19.7012 1.65958 19.8032 1.84126 19.9849C2.02294 20.1666 2.125 20.413 2.125 20.6699V25.5137C2.125 26.0275 2.32913 26.5203 2.69248 26.8837C3.05583 27.247 3.54864 27.4512 4.0625 27.4512H27.3125C27.8264 27.4512 28.3192 27.247 28.6825 26.8837C29.0459 26.5203 29.25 26.0275 29.25 25.5137V20.6699C29.25 20.413 29.3521 20.1666 29.5337 19.9849C29.7154 19.8032 29.9618 19.7012 30.2188 19.7012C30.4757 19.7012 30.7221 19.8032 30.9038 19.9849C31.0854 20.1666 31.1875 20.413 31.1875 20.6699V25.5137C31.1875 26.5414 30.7792 27.527 30.0525 28.2537C29.3258 28.9804 28.3402 29.3887 27.3125 29.3887H4.0625C3.03479 29.3887 2.04916 28.9804 1.32246 28.2537C0.595758 27.527 0.1875 26.5414 0.1875 25.5137V20.6699C0.1875 20.413 0.289564 20.1666 0.47124 19.9849C0.652916 19.8032 0.899321 19.7012 1.15625 19.7012Z" fill="black"/>
<path d="M15.0028 23.4867C15.0928 23.5769 15.1997 23.6484 15.3174 23.6973C15.4351 23.7461 15.5613 23.7713 15.6887 23.7713C15.8161 23.7713 15.9423 23.7461 16.06 23.6973C16.1777 23.6484 16.2846 23.5769 16.3746 23.4867L22.1871 17.6742C22.369 17.4923 22.4712 17.2455 22.4712 16.9883C22.4712 16.731 22.369 16.4843 22.1871 16.3024C22.0052 16.1205 21.7585 16.0183 21.5012 16.0183C21.244 16.0183 20.9973 16.1205 20.8154 16.3024L16.6575 20.4622V3.42578C16.6575 3.16885 16.5554 2.92245 16.3737 2.74077C16.1921 2.5591 15.9457 2.45703 15.6887 2.45703C15.4318 2.45703 15.1854 2.5591 15.0037 2.74077C14.822 2.92245 14.72 3.16885 14.72 3.42578V20.4622L10.5621 16.3024C10.3802 16.1205 10.1335 16.0183 9.87622 16.0183C9.61897 16.0183 9.37225 16.1205 9.19035 16.3024C9.00844 16.4843 8.90625 16.731 8.90625 16.9883C8.90625 17.2455 9.00844 17.4923 9.19035 17.6742L15.0028 23.4867Z" fill="black"/>
</g>
<defs>
<clipPath id="clip0_558_1925">
<rect width="31" height="31" fill="white" transform="translate(0.1875 0.519531)"/>
</clipPath>
</defs>
</svg>
