<svg width="252" height="155" viewBox="0 0 252 155" fill="none" xmlns="http://www.w3.org/2000/svg">
<circle cx="17.6472" cy="17.9402" r="17.28" fill="#024D52"/>
<path d="M26.8695 11.0293L14.1975 23.7013L8.4375 17.9413" stroke="white" stroke-width="4.608" stroke-linecap="round" stroke-linejoin="round"/>
<path d="M53.0497 24.9395V11.9395L54.1897 13.1195H50.0897V10.9395H55.6497V24.9395H53.0497ZM64.2669 25.1395C63.1602 25.1395 62.1602 24.8595 61.2669 24.2995C60.3869 23.7395 59.6935 22.9261 59.1869 21.8595C58.6802 20.7795 58.4269 19.4728 58.4269 17.9395C58.4269 16.4061 58.6802 15.1061 59.1869 14.0395C59.6935 12.9595 60.3869 12.1395 61.2669 11.5795C62.1602 11.0195 63.1602 10.7395 64.2669 10.7395C65.3869 10.7395 66.3869 11.0195 67.2669 11.5795C68.1469 12.1395 68.8402 12.9595 69.3469 14.0395C69.8669 15.1061 70.1269 16.4061 70.1269 17.9395C70.1269 19.4728 69.8669 20.7795 69.3469 21.8595C68.8402 22.9261 68.1469 23.7395 67.2669 24.2995C66.3869 24.8595 65.3869 25.1395 64.2669 25.1395ZM64.2669 22.8795C64.9202 22.8795 65.4869 22.7061 65.9669 22.3595C66.4469 21.9995 66.8202 21.4528 67.0869 20.7195C67.3669 19.9861 67.5069 19.0595 67.5069 17.9395C67.5069 16.8061 67.3669 15.8795 67.0869 15.1595C66.8202 14.4261 66.4469 13.8861 65.9669 13.5395C65.4869 13.1795 64.9202 12.9995 64.2669 12.9995C63.6402 12.9995 63.0802 13.1795 62.5869 13.5395C62.1069 13.8861 61.7269 14.4261 61.4469 15.1595C61.1802 15.8795 61.0469 16.8061 61.0469 17.9395C61.0469 19.0595 61.1802 19.9861 61.4469 20.7195C61.7269 21.4528 62.1069 21.9995 62.5869 22.3595C63.0802 22.7061 63.6402 22.8795 64.2669 22.8795ZM77.7239 25.1395C76.6172 25.1395 75.6172 24.8595 74.7239 24.2995C73.8439 23.7395 73.1506 22.9261 72.6439 21.8595C72.1372 20.7795 71.8839 19.4728 71.8839 17.9395C71.8839 16.4061 72.1372 15.1061 72.6439 14.0395C73.1506 12.9595 73.8439 12.1395 74.7239 11.5795C75.6172 11.0195 76.6172 10.7395 77.7239 10.7395C78.8439 10.7395 79.8439 11.0195 80.7239 11.5795C81.6039 12.1395 82.2972 12.9595 82.8039 14.0395C83.3239 15.1061 83.5839 16.4061 83.5839 17.9395C83.5839 19.4728 83.3239 20.7795 82.8039 21.8595C82.2972 22.9261 81.6039 23.7395 80.7239 24.2995C79.8439 24.8595 78.8439 25.1395 77.7239 25.1395ZM77.7239 22.8795C78.3772 22.8795 78.9439 22.7061 79.4239 22.3595C79.9039 21.9995 80.2772 21.4528 80.5439 20.7195C80.8239 19.9861 80.9639 19.0595 80.9639 17.9395C80.9639 16.8061 80.8239 15.8795 80.5439 15.1595C80.2772 14.4261 79.9039 13.8861 79.4239 13.5395C78.9439 13.1795 78.3772 12.9995 77.7239 12.9995C77.0972 12.9995 76.5372 13.1795 76.0439 13.5395C75.5639 13.8861 75.1839 14.4261 74.9039 15.1595C74.6372 15.8795 74.5039 16.8061 74.5039 17.9395C74.5039 19.0595 74.6372 19.9861 74.9039 20.7195C75.1839 21.4528 75.5639 21.9995 76.0439 22.3595C76.5372 22.7061 77.0972 22.8795 77.7239 22.8795ZM87.3009 24.9395L96.8609 10.9395H98.8209L89.2609 24.9395H87.3009ZM88.4609 18.4795C87.8076 18.4795 87.2276 18.3195 86.7209 17.9995C86.2143 17.6795 85.8209 17.2328 85.5409 16.6595C85.2609 16.0861 85.1209 15.4128 85.1209 14.6395C85.1209 13.8661 85.2609 13.1928 85.5409 12.6195C85.8209 12.0461 86.2143 11.5995 86.7209 11.2795C87.2276 10.9595 87.8076 10.7995 88.4609 10.7995C89.1409 10.7995 89.7276 10.9595 90.2209 11.2795C90.7276 11.5995 91.1209 12.0461 91.4009 12.6195C91.6809 13.1928 91.8209 13.8661 91.8209 14.6395C91.8209 15.4128 91.6809 16.0861 91.4009 16.6595C91.1209 17.2328 90.7276 17.6795 90.2209 17.9995C89.7276 18.3195 89.1409 18.4795 88.4609 18.4795ZM88.4809 17.0795C89.0143 17.0795 89.4276 16.8728 89.7209 16.4595C90.0276 16.0328 90.1809 15.4261 90.1809 14.6395C90.1809 13.8528 90.0276 13.2528 89.7209 12.8395C89.4276 12.4128 89.0143 12.1995 88.4809 12.1995C87.9476 12.1995 87.5209 12.4128 87.2009 12.8395C86.8943 13.2661 86.7409 13.8661 86.7409 14.6395C86.7409 15.4128 86.8943 16.0128 87.2009 16.4395C87.5209 16.8661 87.9476 17.0795 88.4809 17.0795ZM97.6409 25.0795C96.9876 25.0795 96.4076 24.9195 95.9009 24.5995C95.3943 24.2795 95.0009 23.8328 94.7209 23.2595C94.4409 22.6861 94.3009 22.0128 94.3009 21.2395C94.3009 20.4661 94.4409 19.7928 94.7209 19.2195C95.0009 18.6461 95.3943 18.1995 95.9009 17.8795C96.4076 17.5595 96.9876 17.3995 97.6409 17.3995C98.3209 17.3995 98.9076 17.5595 99.4009 17.8795C99.9076 18.1995 100.301 18.6461 100.581 19.2195C100.861 19.7928 101.001 20.4661 101.001 21.2395C101.001 22.0128 100.861 22.6861 100.581 23.2595C100.301 23.8328 99.9076 24.2795 99.4009 24.5995C98.9076 24.9195 98.3209 25.0795 97.6409 25.0795ZM97.6409 23.6795C98.1743 23.6795 98.5943 23.4661 98.9009 23.0395C99.2076 22.6128 99.3609 22.0128 99.3609 21.2395C99.3609 20.4661 99.2076 19.8661 98.9009 19.4395C98.5943 19.0128 98.1743 18.7995 97.6409 18.7995C97.1209 18.7995 96.7009 19.0128 96.3809 19.4395C96.0743 19.8528 95.9209 20.4528 95.9209 21.2395C95.9209 22.0261 96.0743 22.6328 96.3809 23.0595C96.7009 23.4728 97.1209 23.6795 97.6409 23.6795ZM109.075 24.9395V10.9395H115.635C117.315 10.9395 118.595 11.2728 119.475 11.9395C120.355 12.5928 120.795 13.4728 120.795 14.5795C120.795 15.3261 120.622 15.9661 120.275 16.4995C119.929 17.0195 119.462 17.4261 118.875 17.7195C118.302 17.9995 117.675 18.1395 116.995 18.1395L117.355 17.4195C118.142 17.4195 118.849 17.5661 119.475 17.8595C120.102 18.1395 120.595 18.5528 120.955 19.0995C121.329 19.6461 121.515 20.3261 121.515 21.1395C121.515 22.3395 121.055 23.2728 120.135 23.9395C119.215 24.6061 117.849 24.9395 116.035 24.9395H109.075ZM111.675 22.8995H115.875C116.849 22.8995 117.595 22.7395 118.115 22.4195C118.635 22.0995 118.895 21.5861 118.895 20.8795C118.895 20.1861 118.635 19.6795 118.115 19.3595C117.595 19.0261 116.849 18.8595 115.875 18.8595H111.475V16.8395H115.355C116.262 16.8395 116.955 16.6795 117.435 16.3595C117.929 16.0395 118.175 15.5595 118.175 14.9195C118.175 14.2661 117.929 13.7795 117.435 13.4595C116.955 13.1395 116.262 12.9795 115.355 12.9795H111.675V22.8995ZM129.07 25.0795C127.883 25.0795 126.843 24.8461 125.95 24.3795C125.07 23.8995 124.383 23.2461 123.89 22.4195C123.41 21.5928 123.17 20.6528 123.17 19.5995C123.17 18.5328 123.403 17.5928 123.87 16.7795C124.35 15.9528 125.003 15.3061 125.83 14.8395C126.67 14.3728 127.623 14.1395 128.69 14.1395C129.73 14.1395 130.657 14.3661 131.47 14.8195C132.283 15.2728 132.923 15.9128 133.39 16.7395C133.857 17.5661 134.09 18.5395 134.09 19.6595C134.09 19.7661 134.083 19.8861 134.07 20.0195C134.07 20.1528 134.063 20.2795 134.05 20.3995H125.15V18.7395H132.73L131.75 19.2595C131.763 18.6461 131.637 18.1061 131.37 17.6395C131.103 17.1728 130.737 16.8061 130.27 16.5395C129.817 16.2728 129.29 16.1395 128.69 16.1395C128.077 16.1395 127.537 16.2728 127.07 16.5395C126.617 16.8061 126.257 17.1795 125.99 17.6595C125.737 18.1261 125.61 18.6795 125.61 19.3195V19.7195C125.61 20.3595 125.757 20.9261 126.05 21.4195C126.343 21.9128 126.757 22.2928 127.29 22.5595C127.823 22.8261 128.437 22.9595 129.13 22.9595C129.73 22.9595 130.27 22.8661 130.75 22.6795C131.23 22.4928 131.657 22.1995 132.03 21.7995L133.37 23.3395C132.89 23.8995 132.283 24.3328 131.55 24.6395C130.83 24.9328 130.003 25.0795 129.07 25.0795ZM140.512 25.0795C139.338 25.0795 138.432 24.7795 137.792 24.1795C137.152 23.5661 136.832 22.6661 136.832 21.4795V11.8995H139.332V21.4195C139.332 21.9261 139.458 22.3195 139.712 22.5995C139.978 22.8795 140.345 23.0195 140.812 23.0195C141.372 23.0195 141.838 22.8728 142.212 22.5795L142.912 24.3595C142.618 24.5995 142.258 24.7795 141.832 24.8995C141.405 25.0195 140.965 25.0795 140.512 25.0795ZM135.072 16.3395V14.3395H142.192V16.3395H135.072ZM148.734 25.0795C147.561 25.0795 146.654 24.7795 146.014 24.1795C145.374 23.5661 145.054 22.6661 145.054 21.4795V11.8995H147.554V21.4195C147.554 21.9261 147.681 22.3195 147.934 22.5995C148.201 22.8795 148.568 23.0195 149.034 23.0195C149.594 23.0195 150.061 22.8728 150.434 22.5795L151.134 24.3595C150.841 24.5995 150.481 24.7795 150.054 24.8995C149.628 25.0195 149.188 25.0795 148.734 25.0795ZM143.294 16.3395V14.3395H150.414V16.3395H143.294ZM157.859 25.0795C156.673 25.0795 155.633 24.8461 154.739 24.3795C153.859 23.8995 153.173 23.2461 152.679 22.4195C152.199 21.5928 151.959 20.6528 151.959 19.5995C151.959 18.5328 152.193 17.5928 152.659 16.7795C153.139 15.9528 153.793 15.3061 154.619 14.8395C155.459 14.3728 156.413 14.1395 157.479 14.1395C158.519 14.1395 159.446 14.3661 160.259 14.8195C161.073 15.2728 161.713 15.9128 162.179 16.7395C162.646 17.5661 162.879 18.5395 162.879 19.6595C162.879 19.7661 162.873 19.8861 162.859 20.0195C162.859 20.1528 162.853 20.2795 162.839 20.3995H153.939V18.7395H161.519L160.539 19.2595C160.553 18.6461 160.426 18.1061 160.159 17.6395C159.893 17.1728 159.526 16.8061 159.059 16.5395C158.606 16.2728 158.079 16.1395 157.479 16.1395C156.866 16.1395 156.326 16.2728 155.859 16.5395C155.406 16.8061 155.046 17.1795 154.779 17.6595C154.526 18.1261 154.399 18.6795 154.399 19.3195V19.7195C154.399 20.3595 154.546 20.9261 154.839 21.4195C155.133 21.9128 155.546 22.2928 156.079 22.5595C156.613 22.8261 157.226 22.9595 157.919 22.9595C158.519 22.9595 159.059 22.8661 159.539 22.6795C160.019 22.4928 160.446 22.1995 160.819 21.7995L162.159 23.3395C161.679 23.8995 161.073 24.3328 160.339 24.6395C159.619 24.9328 158.793 25.0795 157.859 25.0795ZM165.281 24.9395V14.2595H167.661V17.1995L167.381 16.3395C167.701 15.6195 168.201 15.0728 168.881 14.6995C169.574 14.3261 170.434 14.1395 171.461 14.1395V16.5195C171.354 16.4928 171.254 16.4795 171.161 16.4795C171.067 16.4661 170.974 16.4595 170.881 16.4595C169.934 16.4595 169.181 16.7395 168.621 17.2995C168.061 17.8461 167.781 18.6661 167.781 19.7595V24.9395H165.281ZM179.446 24.9395V10.9395H185.206C186.446 10.9395 187.506 11.1395 188.386 11.5395C189.28 11.9395 189.966 12.5128 190.446 13.2595C190.926 14.0061 191.166 14.8928 191.166 15.9195C191.166 16.9461 190.926 17.8328 190.446 18.5795C189.966 19.3128 189.28 19.8795 188.386 20.2795C187.506 20.6661 186.446 20.8595 185.206 20.8595H180.886L182.046 19.6795V24.9395H179.446ZM188.606 24.9395L185.066 19.8595H187.846L191.406 24.9395H188.606ZM182.046 19.9595L180.886 18.7195H185.086C186.233 18.7195 187.093 18.4728 187.666 17.9795C188.253 17.4861 188.546 16.7995 188.546 15.9195C188.546 15.0261 188.253 14.3395 187.666 13.8595C187.093 13.3795 186.233 13.1395 185.086 13.1395H180.886L182.046 11.8595V19.9595ZM198.855 25.0795C197.669 25.0795 196.629 24.8461 195.735 24.3795C194.855 23.8995 194.169 23.2461 193.675 22.4195C193.195 21.5928 192.955 20.6528 192.955 19.5995C192.955 18.5328 193.189 17.5928 193.655 16.7795C194.135 15.9528 194.789 15.3061 195.615 14.8395C196.455 14.3728 197.409 14.1395 198.475 14.1395C199.515 14.1395 200.442 14.3661 201.255 14.8195C202.069 15.2728 202.709 15.9128 203.175 16.7395C203.642 17.5661 203.875 18.5395 203.875 19.6595C203.875 19.7661 203.869 19.8861 203.855 20.0195C203.855 20.1528 203.849 20.2795 203.835 20.3995H194.935V18.7395H202.515L201.535 19.2595C201.549 18.6461 201.422 18.1061 201.155 17.6395C200.889 17.1728 200.522 16.8061 200.055 16.5395C199.602 16.2728 199.075 16.1395 198.475 16.1395C197.862 16.1395 197.322 16.2728 196.855 16.5395C196.402 16.8061 196.042 17.1795 195.775 17.6595C195.522 18.1261 195.395 18.6795 195.395 19.3195V19.7195C195.395 20.3595 195.542 20.9261 195.835 21.4195C196.129 21.9128 196.542 22.2928 197.075 22.5595C197.609 22.8261 198.222 22.9595 198.915 22.9595C199.515 22.9595 200.055 22.8661 200.535 22.6795C201.015 22.4928 201.442 22.1995 201.815 21.7995L203.155 23.3395C202.675 23.8995 202.069 24.3328 201.335 24.6395C200.615 24.9328 199.789 25.0795 198.855 25.0795ZM209.577 25.0795C208.683 25.0795 207.823 24.9661 206.997 24.7395C206.183 24.4995 205.537 24.2128 205.057 23.8795L206.017 21.9795C206.497 22.2861 207.07 22.5395 207.737 22.7395C208.403 22.9395 209.07 23.0395 209.737 23.0395C210.523 23.0395 211.09 22.9328 211.437 22.7195C211.797 22.5061 211.977 22.2195 211.977 21.8595C211.977 21.5661 211.857 21.3461 211.617 21.1995C211.377 21.0395 211.063 20.9195 210.677 20.8395C210.29 20.7595 209.857 20.6861 209.377 20.6195C208.91 20.5528 208.437 20.4661 207.957 20.3595C207.49 20.2395 207.063 20.0728 206.677 19.8595C206.29 19.6328 205.977 19.3328 205.737 18.9595C205.497 18.5861 205.377 18.0928 205.377 17.4795C205.377 16.7995 205.57 16.2128 205.957 15.7195C206.343 15.2128 206.883 14.8261 207.577 14.5595C208.283 14.2795 209.117 14.1395 210.077 14.1395C210.797 14.1395 211.523 14.2195 212.257 14.3795C212.99 14.5395 213.597 14.7661 214.077 15.0595L213.117 16.9595C212.61 16.6528 212.097 16.4461 211.577 16.3395C211.07 16.2195 210.563 16.1595 210.057 16.1595C209.297 16.1595 208.73 16.2728 208.357 16.4995C207.997 16.7261 207.817 17.0128 207.817 17.3595C207.817 17.6795 207.937 17.9195 208.177 18.0795C208.417 18.2395 208.73 18.3661 209.117 18.4595C209.503 18.5528 209.93 18.6328 210.397 18.6995C210.877 18.7528 211.35 18.8395 211.817 18.9595C212.283 19.0795 212.71 19.2461 213.097 19.4595C213.497 19.6595 213.817 19.9461 214.057 20.3195C214.297 20.6928 214.417 21.1795 214.417 21.7795C214.417 22.4461 214.217 23.0261 213.817 23.5195C213.43 24.0128 212.877 24.3995 212.157 24.6795C211.437 24.9461 210.577 25.0795 209.577 25.0795ZM221.09 25.0795C220.183 25.0795 219.383 24.9128 218.69 24.5795C217.996 24.2328 217.456 23.7128 217.07 23.0195C216.683 22.3128 216.49 21.4261 216.49 20.3595V14.2595H218.99V20.0195C218.99 20.9795 219.203 21.6995 219.63 22.1795C220.07 22.6461 220.69 22.8795 221.49 22.8795C222.076 22.8795 222.583 22.7595 223.01 22.5195C223.45 22.2795 223.79 21.9195 224.03 21.4395C224.283 20.9595 224.41 20.3661 224.41 19.6595V14.2595H226.91V24.9395H224.53V22.0595L224.95 22.9395C224.59 23.6328 224.063 24.1661 223.37 24.5395C222.676 24.8995 221.916 25.0795 221.09 25.0795ZM230.183 24.9395V10.0995H232.683V24.9395H230.183ZM240.512 25.0795C239.338 25.0795 238.432 24.7795 237.792 24.1795C237.152 23.5661 236.832 22.6661 236.832 21.4795V11.8995H239.332V21.4195C239.332 21.9261 239.458 22.3195 239.712 22.5995C239.978 22.8795 240.345 23.0195 240.812 23.0195C241.372 23.0195 241.838 22.8728 242.212 22.5795L242.912 24.3595C242.618 24.5995 242.258 24.7795 241.832 24.8995C241.405 25.0195 240.965 25.0795 240.512 25.0795ZM235.072 16.3395V14.3395H242.192V16.3395H235.072Z" fill="black"/>
<circle cx="17.6472" cy="77.5007" r="17.28" fill="#024D52"/>
<path d="M26.8695 70.5879L14.1975 83.2599L8.4375 77.4999" stroke="white" stroke-width="4.608" stroke-linecap="round" stroke-linejoin="round"/>
<path d="M61.6497 70.5H64.2497V84.5H61.6497V70.5ZM54.4097 84.5H51.8097V70.5H54.4097V84.5ZM61.8497 78.5H54.1897V76.28H61.8497V78.5ZM74.3411 84.5V82.34L74.2011 81.88V78.1C74.2011 77.3667 73.9811 76.8 73.5411 76.4C73.1011 75.9867 72.4344 75.78 71.5411 75.78C70.9411 75.78 70.3478 75.8733 69.7611 76.06C69.1878 76.2467 68.7011 76.5067 68.3011 76.84L67.3211 75.02C67.8944 74.58 68.5744 74.2533 69.3611 74.04C70.1611 73.8133 70.9878 73.7 71.8411 73.7C73.3878 73.7 74.5811 74.0733 75.4211 74.82C76.2744 75.5533 76.7011 76.6933 76.7011 78.24V84.5H74.3411ZM70.9811 84.64C70.1811 84.64 69.4811 84.5067 68.8811 84.24C68.2811 83.96 67.8144 83.58 67.4811 83.1C67.1611 82.6067 67.0011 82.0533 67.0011 81.44C67.0011 80.84 67.1411 80.3 67.4211 79.82C67.7144 79.34 68.1878 78.96 68.8411 78.68C69.4944 78.4 70.3611 78.26 71.4411 78.26H74.5411V79.92H71.6211C70.7678 79.92 70.1944 80.06 69.9011 80.34C69.6078 80.6067 69.4611 80.94 69.4611 81.34C69.4611 81.7933 69.6411 82.1533 70.0011 82.42C70.3611 82.6867 70.8611 82.82 71.5011 82.82C72.1144 82.82 72.6611 82.68 73.1411 82.4C73.6344 82.12 73.9878 81.7067 74.2011 81.16L74.6211 82.66C74.3811 83.2867 73.9478 83.7733 73.3211 84.12C72.7078 84.4667 71.9278 84.64 70.9811 84.64ZM85.8295 84.64C84.9629 84.64 84.1695 84.44 83.4495 84.04C82.7429 83.64 82.1762 83.04 81.7495 82.24C81.3362 81.4267 81.1295 80.4 81.1295 79.16C81.1295 77.9067 81.3295 76.88 81.7295 76.08C82.1429 75.28 82.7029 74.6867 83.4095 74.3C84.1162 73.9 84.9229 73.7 85.8295 73.7C86.8829 73.7 87.8095 73.9267 88.6095 74.38C89.4229 74.8333 90.0629 75.4667 90.5295 76.28C91.0095 77.0933 91.2495 78.0533 91.2495 79.16C91.2495 80.2667 91.0095 81.2333 90.5295 82.06C90.0629 82.8733 89.4229 83.5067 88.6095 83.96C87.8095 84.4133 86.8829 84.64 85.8295 84.64ZM79.9095 88.38V73.82H82.2895V76.34L82.2095 79.18L82.4095 82.02V88.38H79.9095ZM85.5495 82.5C86.1495 82.5 86.6829 82.3667 87.1495 82.1C87.6295 81.8333 88.0095 81.4467 88.2895 80.94C88.5695 80.4333 88.7095 79.84 88.7095 79.16C88.7095 78.4667 88.5695 77.8733 88.2895 77.38C88.0095 76.8733 87.6295 76.4867 87.1495 76.22C86.6829 75.9533 86.1495 75.82 85.5495 75.82C84.9495 75.82 84.4095 75.9533 83.9295 76.22C83.4495 76.4867 83.0695 76.8733 82.7895 77.38C82.5095 77.8733 82.3695 78.4667 82.3695 79.16C82.3695 79.84 82.5095 80.4333 82.7895 80.94C83.0695 81.4467 83.4495 81.8333 83.9295 82.1C84.4095 82.3667 84.9495 82.5 85.5495 82.5ZM99.5405 84.64C98.6738 84.64 97.8805 84.44 97.1605 84.04C96.4538 83.64 95.8871 83.04 95.4605 82.24C95.0471 81.4267 94.8405 80.4 94.8405 79.16C94.8405 77.9067 95.0405 76.88 95.4405 76.08C95.8538 75.28 96.4138 74.6867 97.1205 74.3C97.8271 73.9 98.6338 73.7 99.5405 73.7C100.594 73.7 101.52 73.9267 102.32 74.38C103.134 74.8333 103.774 75.4667 104.24 76.28C104.72 77.0933 104.96 78.0533 104.96 79.16C104.96 80.2667 104.72 81.2333 104.24 82.06C103.774 82.8733 103.134 83.5067 102.32 83.96C101.52 84.4133 100.594 84.64 99.5405 84.64ZM93.6205 88.38V73.82H96.0005V76.34L95.9205 79.18L96.1205 82.02V88.38H93.6205ZM99.2605 82.5C99.8605 82.5 100.394 82.3667 100.86 82.1C101.34 81.8333 101.72 81.4467 102 80.94C102.28 80.4333 102.42 79.84 102.42 79.16C102.42 78.4667 102.28 77.8733 102 77.38C101.72 76.8733 101.34 76.4867 100.86 76.22C100.394 75.9533 99.8605 75.82 99.2605 75.82C98.6605 75.82 98.1205 75.9533 97.6405 76.22C97.1605 76.4867 96.7805 76.8733 96.5005 77.38C96.2205 77.8733 96.0805 78.4667 96.0805 79.16C96.0805 79.84 96.2205 80.4333 96.5005 80.94C96.7805 81.4467 97.1605 81.8333 97.6405 82.1C98.1205 82.3667 98.6605 82.5 99.2605 82.5ZM107.918 88.52C107.398 88.52 106.878 88.4333 106.358 88.26C105.838 88.0867 105.405 87.8467 105.058 87.54L106.058 85.7C106.312 85.9267 106.598 86.1067 106.918 86.24C107.238 86.3733 107.565 86.44 107.898 86.44C108.352 86.44 108.718 86.3267 108.998 86.1C109.278 85.8733 109.538 85.4933 109.778 84.96L110.398 83.56L110.598 83.26L114.638 73.82H117.038L112.038 85.36C111.705 86.16 111.332 86.7933 110.918 87.26C110.518 87.7267 110.065 88.0533 109.558 88.24C109.065 88.4267 108.518 88.52 107.918 88.52ZM110.118 84.88L105.298 73.82H107.898L111.818 83.04L110.118 84.88ZM130.848 84.7C129.782 84.7 128.788 84.5267 127.868 84.18C126.962 83.82 126.168 83.32 125.488 82.68C124.822 82.0267 124.302 81.26 123.928 80.38C123.555 79.5 123.368 78.54 123.368 77.5C123.368 76.46 123.555 75.5 123.928 74.62C124.302 73.74 124.828 72.98 125.508 72.34C126.188 71.6867 126.982 71.1867 127.888 70.84C128.795 70.48 129.788 70.3 130.868 70.3C132.015 70.3 133.062 70.5 134.008 70.9C134.955 71.2867 135.755 71.8667 136.408 72.64L134.728 74.22C134.222 73.6733 133.655 73.2667 133.028 73C132.402 72.72 131.722 72.58 130.988 72.58C130.255 72.58 129.582 72.7 128.968 72.94C128.368 73.18 127.842 73.52 127.388 73.96C126.948 74.4 126.602 74.92 126.348 75.52C126.108 76.12 125.988 76.78 125.988 77.5C125.988 78.22 126.108 78.88 126.348 79.48C126.602 80.08 126.948 80.6 127.388 81.04C127.842 81.48 128.368 81.82 128.968 82.06C129.582 82.3 130.255 82.42 130.988 82.42C131.722 82.42 132.402 82.2867 133.028 82.02C133.655 81.74 134.222 81.32 134.728 80.76L136.408 82.36C135.755 83.12 134.955 83.7 134.008 84.1C133.062 84.5 132.008 84.7 130.848 84.7ZM142.887 84.64C141.98 84.64 141.18 84.4733 140.487 84.14C139.793 83.7933 139.253 83.2733 138.867 82.58C138.48 81.8733 138.287 80.9867 138.287 79.92V73.82H140.787V79.58C140.787 80.54 141 81.26 141.427 81.74C141.867 82.2067 142.487 82.44 143.287 82.44C143.873 82.44 144.38 82.32 144.807 82.08C145.247 81.84 145.587 81.48 145.827 81C146.08 80.52 146.207 79.9267 146.207 79.22V73.82H148.707V84.5H146.327V81.62L146.747 82.5C146.387 83.1933 145.86 83.7267 145.167 84.1C144.473 84.46 143.713 84.64 142.887 84.64ZM155.28 84.64C154.387 84.64 153.527 84.5267 152.7 84.3C151.887 84.06 151.24 83.7733 150.76 83.44L151.72 81.54C152.2 81.8467 152.773 82.1 153.44 82.3C154.107 82.5 154.773 82.6 155.44 82.6C156.227 82.6 156.793 82.4933 157.14 82.28C157.5 82.0667 157.68 81.78 157.68 81.42C157.68 81.1267 157.56 80.9067 157.32 80.76C157.08 80.6 156.767 80.48 156.38 80.4C155.993 80.32 155.56 80.2467 155.08 80.18C154.613 80.1133 154.14 80.0267 153.66 79.92C153.193 79.8 152.767 79.6333 152.38 79.42C151.993 79.1933 151.68 78.8933 151.44 78.52C151.2 78.1467 151.08 77.6533 151.08 77.04C151.08 76.36 151.273 75.7733 151.66 75.28C152.047 74.7733 152.587 74.3867 153.28 74.12C153.987 73.84 154.82 73.7 155.78 73.7C156.5 73.7 157.227 73.78 157.96 73.94C158.693 74.1 159.3 74.3267 159.78 74.62L158.82 76.52C158.313 76.2133 157.8 76.0067 157.28 75.9C156.773 75.78 156.267 75.72 155.76 75.72C155 75.72 154.433 75.8333 154.06 76.06C153.7 76.2867 153.52 76.5733 153.52 76.92C153.52 77.24 153.64 77.48 153.88 77.64C154.12 77.8 154.433 77.9267 154.82 78.02C155.207 78.1133 155.633 78.1933 156.1 78.26C156.58 78.3133 157.053 78.4 157.52 78.52C157.987 78.64 158.413 78.8067 158.8 79.02C159.2 79.22 159.52 79.5067 159.76 79.88C160 80.2533 160.12 80.74 160.12 81.34C160.12 82.0067 159.92 82.5867 159.52 83.08C159.133 83.5733 158.58 83.96 157.86 84.24C157.14 84.5067 156.28 84.64 155.28 84.64ZM166.293 84.64C165.119 84.64 164.213 84.34 163.573 83.74C162.933 83.1267 162.613 82.2267 162.613 81.04V71.46H165.113V80.98C165.113 81.4867 165.239 81.88 165.493 82.16C165.759 82.44 166.126 82.58 166.593 82.58C167.153 82.58 167.619 82.4333 167.993 82.14L168.693 83.92C168.399 84.16 168.039 84.34 167.613 84.46C167.186 84.58 166.746 84.64 166.293 84.64ZM160.853 75.9V73.9H167.973V75.9H160.853ZM175.198 84.64C174.104 84.64 173.131 84.4067 172.278 83.94C171.424 83.46 170.751 82.8067 170.258 81.98C169.764 81.1533 169.518 80.2133 169.518 79.16C169.518 78.0933 169.764 77.1533 170.258 76.34C170.751 75.5133 171.424 74.8667 172.278 74.4C173.131 73.9333 174.104 73.7 175.198 73.7C176.304 73.7 177.284 73.9333 178.138 74.4C179.004 74.8667 179.678 75.5067 180.158 76.32C180.651 77.1333 180.898 78.08 180.898 79.16C180.898 80.2133 180.651 81.1533 180.158 81.98C179.678 82.8067 179.004 83.46 178.138 83.94C177.284 84.4067 176.304 84.64 175.198 84.64ZM175.198 82.5C175.811 82.5 176.358 82.3667 176.838 82.1C177.318 81.8333 177.691 81.4467 177.958 80.94C178.238 80.4333 178.378 79.84 178.378 79.16C178.378 78.4667 178.238 77.8733 177.958 77.38C177.691 76.8733 177.318 76.4867 176.838 76.22C176.358 75.9533 175.818 75.82 175.218 75.82C174.604 75.82 174.058 75.9533 173.578 76.22C173.111 76.4867 172.738 76.8733 172.458 77.38C172.178 77.8733 172.038 78.4667 172.038 79.16C172.038 79.84 172.178 80.4333 172.458 80.94C172.738 81.4467 173.111 81.8333 173.578 82.1C174.058 82.3667 174.598 82.5 175.198 82.5ZM196.768 73.7C197.622 73.7 198.375 73.8667 199.028 74.2C199.695 74.5333 200.215 75.0467 200.588 75.74C200.962 76.42 201.148 77.3 201.148 78.38V84.5H198.648V78.7C198.648 77.7533 198.442 77.0467 198.028 76.58C197.615 76.1133 197.022 75.88 196.248 75.88C195.702 75.88 195.215 76 194.788 76.24C194.375 76.48 194.048 76.8333 193.808 77.3C193.582 77.7667 193.468 78.36 193.468 79.08V84.5H190.968V78.7C190.968 77.7533 190.762 77.0467 190.348 76.58C189.935 76.1133 189.342 75.88 188.568 75.88C188.022 75.88 187.535 76 187.108 76.24C186.695 76.48 186.368 76.8333 186.128 77.3C185.902 77.7667 185.788 78.36 185.788 79.08V84.5H183.288V73.82H185.668V76.66L185.248 75.82C185.608 75.1267 186.128 74.6 186.808 74.24C187.502 73.88 188.288 73.7 189.168 73.7C190.168 73.7 191.035 73.9467 191.768 74.44C192.515 74.9333 193.008 75.68 193.248 76.68L192.268 76.34C192.615 75.54 193.188 74.9 193.988 74.42C194.788 73.94 195.715 73.7 196.768 73.7ZM209.383 84.64C208.196 84.64 207.156 84.4067 206.263 83.94C205.383 83.46 204.696 82.8067 204.203 81.98C203.723 81.1533 203.483 80.2133 203.483 79.16C203.483 78.0933 203.716 77.1533 204.183 76.34C204.663 75.5133 205.316 74.8667 206.143 74.4C206.983 73.9333 207.936 73.7 209.003 73.7C210.043 73.7 210.969 73.9267 211.783 74.38C212.596 74.8333 213.236 75.4733 213.703 76.3C214.169 77.1267 214.403 78.1 214.403 79.22C214.403 79.3267 214.396 79.4467 214.383 79.58C214.383 79.7133 214.376 79.84 214.363 79.96H205.463V78.3H213.043L212.063 78.82C212.076 78.2067 211.949 77.6667 211.683 77.2C211.416 76.7333 211.049 76.3667 210.583 76.1C210.129 75.8333 209.603 75.7 209.003 75.7C208.389 75.7 207.849 75.8333 207.383 76.1C206.929 76.3667 206.569 76.74 206.303 77.22C206.049 77.6867 205.923 78.24 205.923 78.88V79.28C205.923 79.92 206.069 80.4867 206.363 80.98C206.656 81.4733 207.069 81.8533 207.603 82.12C208.136 82.3867 208.749 82.52 209.443 82.52C210.043 82.52 210.583 82.4267 211.063 82.24C211.543 82.0533 211.969 81.76 212.343 81.36L213.683 82.9C213.203 83.46 212.596 83.8933 211.863 84.2C211.143 84.4933 210.316 84.64 209.383 84.64ZM216.804 84.5V73.82H219.184V76.76L218.904 75.9C219.224 75.18 219.724 74.6333 220.404 74.26C221.097 73.8867 221.957 73.7 222.984 73.7V76.08C222.877 76.0533 222.777 76.04 222.684 76.04C222.591 76.0267 222.497 76.02 222.404 76.02C221.457 76.02 220.704 76.3 220.144 76.86C219.584 77.4067 219.304 78.2267 219.304 79.32V84.5H216.804ZM228.503 84.64C227.609 84.64 226.749 84.5267 225.923 84.3C225.109 84.06 224.463 83.7733 223.983 83.44L224.943 81.54C225.423 81.8467 225.996 82.1 226.663 82.3C227.329 82.5 227.996 82.6 228.663 82.6C229.449 82.6 230.016 82.4933 230.363 82.28C230.723 82.0667 230.903 81.78 230.903 81.42C230.903 81.1267 230.783 80.9067 230.543 80.76C230.303 80.6 229.989 80.48 229.603 80.4C229.216 80.32 228.783 80.2467 228.303 80.18C227.836 80.1133 227.363 80.0267 226.883 79.92C226.416 79.8 225.989 79.6333 225.603 79.42C225.216 79.1933 224.903 78.8933 224.663 78.52C224.423 78.1467 224.303 77.6533 224.303 77.04C224.303 76.36 224.496 75.7733 224.882 75.28C225.269 74.7733 225.809 74.3867 226.502 74.12C227.209 73.84 228.043 73.7 229.003 73.7C229.723 73.7 230.449 73.78 231.183 73.94C231.916 74.1 232.523 74.3267 233.003 74.62L232.043 76.52C231.536 76.2133 231.023 76.0067 230.503 75.9C229.996 75.78 229.489 75.72 228.983 75.72C228.223 75.72 227.656 75.8333 227.283 76.06C226.923 76.2867 226.743 76.5733 226.743 76.92C226.743 77.24 226.863 77.48 227.103 77.64C227.343 77.8 227.656 77.9267 228.043 78.02C228.429 78.1133 228.856 78.1933 229.323 78.26C229.803 78.3133 230.276 78.4 230.743 78.52C231.209 78.64 231.636 78.8067 232.023 79.02C232.423 79.22 232.743 79.5067 232.983 79.88C233.223 80.2533 233.343 80.74 233.343 81.34C233.343 82.0067 233.143 82.5867 232.743 83.08C232.356 83.5733 231.803 83.96 231.083 84.24C230.363 84.5067 229.503 84.64 228.503 84.64Z" fill="black"/>
<circle cx="17.6472" cy="137.059" r="17.28" fill="#024D52"/>
<path d="M26.8695 130.146L14.1975 142.818L8.4375 137.058" stroke="white" stroke-width="4.608" stroke-linecap="round" stroke-linejoin="round"/>
<path d="M55.9497 144.059L49.8297 130.059H52.6497L58.1097 142.719H56.4897L62.0097 130.059H64.6097L58.5097 144.059H55.9497ZM71.6263 144.059V141.899L71.4863 141.439V137.659C71.4863 136.925 71.2663 136.359 70.8263 135.959C70.3863 135.545 69.7196 135.339 68.8263 135.339C68.2263 135.339 67.6329 135.432 67.0463 135.619C66.4729 135.805 65.9863 136.065 65.5863 136.399L64.6063 134.579C65.1796 134.139 65.8596 133.812 66.6463 133.599C67.4463 133.372 68.2729 133.259 69.1263 133.259C70.6729 133.259 71.8663 133.632 72.7063 134.379C73.5596 135.112 73.9863 136.252 73.9863 137.799V144.059H71.6263ZM68.2663 144.199C67.4663 144.199 66.7663 144.065 66.1663 143.799C65.5663 143.519 65.0996 143.139 64.7663 142.659C64.4463 142.165 64.2863 141.612 64.2863 140.999C64.2863 140.399 64.4263 139.859 64.7063 139.379C64.9996 138.899 65.4729 138.519 66.1263 138.239C66.7796 137.959 67.6463 137.819 68.7263 137.819H71.8263V139.479H68.9063C68.0529 139.479 67.4796 139.619 67.1863 139.899C66.8929 140.165 66.7463 140.499 66.7463 140.899C66.7463 141.352 66.9263 141.712 67.2863 141.979C67.6463 142.245 68.1463 142.379 68.7863 142.379C69.3996 142.379 69.9463 142.239 70.4263 141.959C70.9196 141.679 71.2729 141.265 71.4863 140.719L71.9063 142.219C71.6663 142.845 71.2329 143.332 70.6063 143.679C69.9929 144.025 69.2129 144.199 68.2663 144.199ZM77.1947 144.059V129.219H79.6947V144.059H77.1947ZM87.4959 144.199C86.5893 144.199 85.7893 144.032 85.0959 143.699C84.4026 143.352 83.8626 142.832 83.4759 142.139C83.0893 141.432 82.8959 140.545 82.8959 139.479V133.379H85.3959V139.139C85.3959 140.099 85.6093 140.819 86.0359 141.299C86.4759 141.765 87.0959 141.999 87.8959 141.999C88.4826 141.999 88.9893 141.879 89.4159 141.639C89.8559 141.399 90.1959 141.039 90.4359 140.559C90.6893 140.079 90.8159 139.485 90.8159 138.779V133.379H93.3159V144.059H90.9359V141.179L91.3559 142.059C90.9959 142.752 90.4693 143.285 89.7759 143.659C89.0826 144.019 88.3226 144.199 87.4959 144.199ZM103.169 144.059V141.899L103.029 141.439V137.659C103.029 136.925 102.809 136.359 102.369 135.959C101.929 135.545 101.263 135.339 100.369 135.339C99.7692 135.339 99.1759 135.432 98.5892 135.619C98.0159 135.805 97.5292 136.065 97.1292 136.399L96.1492 134.579C96.7226 134.139 97.4026 133.812 98.1892 133.599C98.9892 133.372 99.8159 133.259 100.669 133.259C102.216 133.259 103.409 133.632 104.249 134.379C105.103 135.112 105.529 136.252 105.529 137.799V144.059H103.169ZM99.8092 144.199C99.0092 144.199 98.3092 144.065 97.7092 143.799C97.1092 143.519 96.6426 143.139 96.3092 142.659C95.9892 142.165 95.8292 141.612 95.8292 140.999C95.8292 140.399 95.9692 139.859 96.2492 139.379C96.5426 138.899 97.0159 138.519 97.6692 138.239C98.3226 137.959 99.1892 137.819 100.269 137.819H103.369V139.479H100.449C99.5959 139.479 99.0226 139.619 98.7292 139.899C98.4359 140.165 98.2892 140.499 98.2892 140.899C98.2892 141.352 98.4692 141.712 98.8292 141.979C99.1892 142.245 99.6892 142.379 100.329 142.379C100.943 142.379 101.489 142.239 101.969 141.959C102.463 141.679 102.816 141.265 103.029 140.719L103.449 142.219C103.209 142.845 102.776 143.332 102.149 143.679C101.536 144.025 100.756 144.199 99.8092 144.199ZM114.658 144.199C113.751 144.199 112.944 143.999 112.238 143.599C111.531 143.199 110.971 142.599 110.558 141.799C110.158 140.985 109.958 139.959 109.958 138.719C109.958 137.465 110.164 136.439 110.578 135.639C111.004 134.839 111.571 134.245 112.278 133.859C112.998 133.459 113.791 133.259 114.658 133.259C115.711 133.259 116.638 133.485 117.438 133.939C118.251 134.392 118.891 135.025 119.358 135.839C119.838 136.652 120.078 137.612 120.078 138.719C120.078 139.825 119.838 140.785 119.358 141.599C118.891 142.412 118.251 143.052 117.438 143.519C116.638 143.972 115.711 144.199 114.658 144.199ZM108.738 144.059V129.219H111.238V135.859L111.038 138.699L111.118 141.539V144.059H108.738ZM114.378 142.059C114.978 142.059 115.511 141.925 115.978 141.659C116.458 141.392 116.838 141.005 117.118 140.499C117.398 139.992 117.538 139.399 117.538 138.719C117.538 138.025 117.398 137.432 117.118 136.939C116.838 136.432 116.458 136.045 115.978 135.779C115.511 135.512 114.978 135.379 114.378 135.379C113.778 135.379 113.238 135.512 112.758 135.779C112.278 136.045 111.898 136.432 111.618 136.939C111.338 137.432 111.198 138.025 111.198 138.719C111.198 139.399 111.338 139.992 111.618 140.499C111.898 141.005 112.278 141.392 112.758 141.659C113.238 141.925 113.778 142.059 114.378 142.059ZM122.449 144.059V129.219H124.949V144.059H122.449ZM133.25 144.199C132.063 144.199 131.023 143.965 130.13 143.499C129.25 143.019 128.563 142.365 128.07 141.539C127.59 140.712 127.35 139.772 127.35 138.719C127.35 137.652 127.583 136.712 128.05 135.899C128.53 135.072 129.183 134.425 130.01 133.959C130.85 133.492 131.803 133.259 132.87 133.259C133.91 133.259 134.837 133.485 135.65 133.939C136.463 134.392 137.103 135.032 137.57 135.859C138.037 136.685 138.27 137.659 138.27 138.779C138.27 138.885 138.263 139.005 138.25 139.139C138.25 139.272 138.243 139.399 138.23 139.519H129.33V137.859H136.91L135.93 138.379C135.943 137.765 135.817 137.225 135.55 136.759C135.283 136.292 134.917 135.925 134.45 135.659C133.997 135.392 133.47 135.259 132.87 135.259C132.257 135.259 131.717 135.392 131.25 135.659C130.797 135.925 130.437 136.299 130.17 136.779C129.917 137.245 129.79 137.799 129.79 138.439V138.839C129.79 139.479 129.937 140.045 130.23 140.539C130.523 141.032 130.937 141.412 131.47 141.679C132.003 141.945 132.617 142.079 133.31 142.079C133.91 142.079 134.45 141.985 134.93 141.799C135.41 141.612 135.837 141.319 136.21 140.919L137.55 142.459C137.07 143.019 136.463 143.452 135.73 143.759C135.01 144.052 134.183 144.199 133.25 144.199ZM146.439 144.059V130.059H149.039V144.059H146.439ZM158.645 133.259C159.499 133.259 160.259 133.425 160.925 133.759C161.605 134.092 162.139 134.605 162.525 135.299C162.912 135.979 163.105 136.859 163.105 137.939V144.059H160.605V138.259C160.605 137.312 160.379 136.605 159.925 136.139C159.485 135.672 158.865 135.439 158.065 135.439C157.479 135.439 156.959 135.559 156.505 135.799C156.052 136.039 155.699 136.399 155.445 136.879C155.205 137.345 155.085 137.939 155.085 138.659V144.059H152.585V133.379H154.965V136.259L154.545 135.379C154.919 134.699 155.459 134.179 156.165 133.819C156.885 133.445 157.712 133.259 158.645 133.259ZM169.577 144.199C168.683 144.199 167.823 144.085 166.997 143.859C166.183 143.619 165.537 143.332 165.057 142.999L166.017 141.099C166.497 141.405 167.07 141.659 167.737 141.859C168.403 142.059 169.07 142.159 169.737 142.159C170.523 142.159 171.09 142.052 171.437 141.839C171.797 141.625 171.977 141.339 171.977 140.979C171.977 140.685 171.857 140.465 171.617 140.319C171.377 140.159 171.063 140.039 170.677 139.959C170.29 139.879 169.857 139.805 169.377 139.739C168.91 139.672 168.437 139.585 167.957 139.479C167.49 139.359 167.063 139.192 166.677 138.979C166.29 138.752 165.977 138.452 165.737 138.079C165.497 137.705 165.377 137.212 165.377 136.599C165.377 135.919 165.57 135.332 165.957 134.839C166.343 134.332 166.883 133.945 167.577 133.679C168.283 133.399 169.117 133.259 170.077 133.259C170.797 133.259 171.523 133.339 172.257 133.499C172.99 133.659 173.597 133.885 174.077 134.179L173.117 136.079C172.61 135.772 172.097 135.565 171.577 135.459C171.07 135.339 170.563 135.279 170.057 135.279C169.297 135.279 168.73 135.392 168.357 135.619C167.997 135.845 167.817 136.132 167.817 136.479C167.817 136.799 167.937 137.039 168.177 137.199C168.417 137.359 168.73 137.485 169.117 137.579C169.503 137.672 169.93 137.752 170.397 137.819C170.877 137.872 171.35 137.959 171.817 138.079C172.283 138.199 172.71 138.365 173.097 138.579C173.497 138.779 173.817 139.065 174.057 139.439C174.297 139.812 174.417 140.299 174.417 140.899C174.417 141.565 174.217 142.145 173.817 142.639C173.43 143.132 172.877 143.519 172.157 143.799C171.437 144.065 170.577 144.199 169.577 144.199ZM176.57 144.059V133.379H179.07V144.059H176.57ZM177.83 131.619C177.363 131.619 176.976 131.472 176.67 131.179C176.376 130.885 176.23 130.532 176.23 130.119C176.23 129.692 176.376 129.339 176.67 129.059C176.976 128.765 177.363 128.619 177.83 128.619C178.296 128.619 178.676 128.759 178.97 129.039C179.276 129.305 179.43 129.645 179.43 130.059C179.43 130.499 179.283 130.872 178.99 131.179C178.696 131.472 178.31 131.619 177.83 131.619ZM187.191 148.079C186.204 148.079 185.238 147.945 184.291 147.679C183.358 147.425 182.591 147.052 181.991 146.559L183.111 144.679C183.578 145.065 184.164 145.372 184.871 145.599C185.591 145.839 186.318 145.959 187.051 145.959C188.224 145.959 189.084 145.685 189.631 145.139C190.178 144.605 190.451 143.799 190.451 142.719V140.819L190.651 138.399L190.571 135.979V133.379H192.951V142.439C192.951 144.372 192.458 145.792 191.471 146.699C190.484 147.619 189.058 148.079 187.191 148.079ZM186.871 143.579C185.858 143.579 184.938 143.365 184.111 142.939C183.298 142.499 182.651 141.892 182.171 141.119C181.704 140.345 181.471 139.439 181.471 138.399C181.471 137.372 181.704 136.472 182.171 135.699C182.651 134.925 183.298 134.325 184.111 133.899C184.938 133.472 185.858 133.259 186.871 133.259C187.778 133.259 188.591 133.439 189.311 133.799C190.031 134.159 190.604 134.719 191.031 135.479C191.471 136.239 191.691 137.212 191.691 138.399C191.691 139.585 191.471 140.565 191.031 141.339C190.604 142.099 190.031 142.665 189.311 143.039C188.591 143.399 187.778 143.579 186.871 143.579ZM187.251 141.459C187.878 141.459 188.438 141.332 188.931 141.079C189.424 140.812 189.804 140.452 190.071 139.999C190.351 139.532 190.491 138.999 190.491 138.399C190.491 137.799 190.351 137.272 190.071 136.819C189.804 136.352 189.424 135.999 188.931 135.759C188.438 135.505 187.878 135.379 187.251 135.379C186.624 135.379 186.058 135.505 185.551 135.759C185.058 135.999 184.671 136.352 184.391 136.819C184.124 137.272 183.991 137.799 183.991 138.399C183.991 138.999 184.124 139.532 184.391 139.999C184.671 140.452 185.058 140.812 185.551 141.079C186.058 141.332 186.624 141.459 187.251 141.459ZM202.298 133.259C203.151 133.259 203.911 133.425 204.578 133.759C205.258 134.092 205.791 134.605 206.178 135.299C206.564 135.979 206.758 136.859 206.758 137.939V144.059H204.258V138.259C204.258 137.312 204.031 136.605 203.578 136.139C203.138 135.672 202.518 135.439 201.718 135.439C201.131 135.439 200.611 135.559 200.158 135.799C199.704 136.039 199.351 136.399 199.098 136.879C198.858 137.345 198.738 137.939 198.738 138.659V144.059H196.238V129.219H198.738V136.259L198.198 135.379C198.571 134.699 199.111 134.179 199.818 133.819C200.538 133.445 201.364 133.259 202.298 133.259ZM213.949 144.199C212.776 144.199 211.869 143.899 211.229 143.299C210.589 142.685 210.269 141.785 210.269 140.599V131.019H212.769V140.539C212.769 141.045 212.896 141.439 213.149 141.719C213.416 141.999 213.782 142.139 214.249 142.139C214.809 142.139 215.276 141.992 215.649 141.699L216.349 143.479C216.056 143.719 215.696 143.899 215.269 144.019C214.842 144.139 214.402 144.199 213.949 144.199ZM208.509 135.459V133.459H215.629V135.459H208.509Z" fill="black"/>
</svg>
